<mxfile host="Electron" agent="Mozilla/5.0 (X11; Linux x86_64) AppleWebKit/537.36 (KHTML, like Gecko) draw.io/24.7.17 Chrome/128.0.6613.36 Electron/32.0.1 Safari/537.36" version="24.7.17">
  <diagram name="Page-1" id="ZIFI0QNOrdWQD879eiv_">
    <mxGraphModel dx="1434" dy="821" grid="1" gridSize="10" guides="1" tooltips="1" connect="1" arrows="1" fold="1" page="1" pageScale="1" pageWidth="850" pageHeight="1100" math="0" shadow="0">
      <root>
        <mxCell id="0" />
        <mxCell id="1" parent="0" />
        <mxCell id="3ZF8GUjdgBichUvoRQWA-45" value="" style="endArrow=classic;html=1;rounded=0;" edge="1" parent="1" source="3ZF8GUjdgBichUvoRQWA-19" target="3ZF8GUjdgBichUvoRQWA-17">
          <mxGeometry width="50" height="50" relative="1" as="geometry">
            <mxPoint x="153" y="475" as="sourcePoint" />
            <mxPoint x="287" y="710" as="targetPoint" />
          </mxGeometry>
        </mxCell>
        <mxCell id="3ZF8GUjdgBichUvoRQWA-24" value="" style="group" vertex="1" connectable="0" parent="1">
          <mxGeometry x="10" y="300" width="95" height="115" as="geometry" />
        </mxCell>
        <mxCell id="3ZF8GUjdgBichUvoRQWA-1" value="" style="shape=note;whiteSpace=wrap;html=1;backgroundOutline=1;darkOpacity=0.05;fillColor=#6a00ff;fontColor=#ffffff;strokeColor=#3700CC;" vertex="1" parent="3ZF8GUjdgBichUvoRQWA-24">
          <mxGeometry width="80" height="100" as="geometry" />
        </mxCell>
        <mxCell id="3ZF8GUjdgBichUvoRQWA-2" value="" style="shape=note;whiteSpace=wrap;html=1;backgroundOutline=1;darkOpacity=0.05;fillColor=#6a00ff;fontColor=#ffffff;strokeColor=#3700CC;" vertex="1" parent="3ZF8GUjdgBichUvoRQWA-24">
          <mxGeometry x="5" y="10" width="80" height="100" as="geometry" />
        </mxCell>
        <mxCell id="3ZF8GUjdgBichUvoRQWA-11" value="" style="shape=note;whiteSpace=wrap;html=1;backgroundOutline=1;darkOpacity=0.05;fillColor=#6a00ff;fontColor=#ffffff;strokeColor=#3700CC;" vertex="1" parent="3ZF8GUjdgBichUvoRQWA-24">
          <mxGeometry x="15" y="15" width="80" height="100" as="geometry" />
        </mxCell>
        <mxCell id="3ZF8GUjdgBichUvoRQWA-12" value="personas" style="text;html=1;align=center;verticalAlign=middle;whiteSpace=wrap;rounded=0;fillColor=#6a00ff;fontColor=#ffffff;strokeColor=#3700CC;" vertex="1" parent="3ZF8GUjdgBichUvoRQWA-24">
          <mxGeometry x="25" y="50" width="60" height="30" as="geometry" />
        </mxCell>
        <mxCell id="3ZF8GUjdgBichUvoRQWA-25" value="" style="group" vertex="1" connectable="0" parent="1">
          <mxGeometry x="20" y="480" width="80" height="100" as="geometry" />
        </mxCell>
        <mxCell id="3ZF8GUjdgBichUvoRQWA-3" value="" style="shape=note;whiteSpace=wrap;html=1;backgroundOutline=1;darkOpacity=0.05;fillColor=#6a00ff;fontColor=#ffffff;strokeColor=#3700CC;" vertex="1" parent="3ZF8GUjdgBichUvoRQWA-25">
          <mxGeometry width="80" height="100" as="geometry" />
        </mxCell>
        <mxCell id="3ZF8GUjdgBichUvoRQWA-4" value="user&lt;div&gt;instructions&lt;/div&gt;" style="text;html=1;align=center;verticalAlign=middle;whiteSpace=wrap;rounded=0;fillColor=#6a00ff;fontColor=#ffffff;strokeColor=#3700CC;" vertex="1" parent="3ZF8GUjdgBichUvoRQWA-25">
          <mxGeometry y="40" width="80" height="30" as="geometry" />
        </mxCell>
        <mxCell id="3ZF8GUjdgBichUvoRQWA-26" value="" style="group" vertex="1" connectable="0" parent="1">
          <mxGeometry x="20" y="640" width="80" height="100" as="geometry" />
        </mxCell>
        <mxCell id="3ZF8GUjdgBichUvoRQWA-5" value="" style="shape=note;whiteSpace=wrap;html=1;backgroundOutline=1;darkOpacity=0.05;fillColor=#6a00ff;fontColor=#ffffff;strokeColor=#3700CC;" vertex="1" parent="3ZF8GUjdgBichUvoRQWA-26">
          <mxGeometry width="80" height="100" as="geometry" />
        </mxCell>
        <mxCell id="3ZF8GUjdgBichUvoRQWA-6" value="moderator&lt;div&gt;instructions&lt;/div&gt;" style="text;html=1;align=center;verticalAlign=middle;whiteSpace=wrap;rounded=0;fillColor=#6a00ff;fontColor=#ffffff;strokeColor=#3700CC;" vertex="1" parent="3ZF8GUjdgBichUvoRQWA-26">
          <mxGeometry y="40" width="80" height="30" as="geometry" />
        </mxCell>
        <mxCell id="3ZF8GUjdgBichUvoRQWA-27" value="" style="group" vertex="1" connectable="0" parent="1">
          <mxGeometry x="17.5" y="790" width="80" height="100" as="geometry" />
        </mxCell>
        <mxCell id="3ZF8GUjdgBichUvoRQWA-7" value="" style="shape=note;whiteSpace=wrap;html=1;backgroundOutline=1;darkOpacity=0.05;fillColor=#6a00ff;fontColor=#ffffff;strokeColor=#3700CC;" vertex="1" parent="3ZF8GUjdgBichUvoRQWA-27">
          <mxGeometry width="80" height="100" as="geometry" />
        </mxCell>
        <mxCell id="3ZF8GUjdgBichUvoRQWA-8" value="conversation&lt;div&gt;configurations&lt;/div&gt;" style="text;html=1;align=center;verticalAlign=middle;whiteSpace=wrap;rounded=0;fillColor=#6a00ff;fontColor=#ffffff;strokeColor=#3700CC;" vertex="1" parent="3ZF8GUjdgBichUvoRQWA-27">
          <mxGeometry y="40" width="80" height="30" as="geometry" />
        </mxCell>
        <mxCell id="3ZF8GUjdgBichUvoRQWA-28" value="" style="group" vertex="1" connectable="0" parent="1">
          <mxGeometry x="17.5" y="950" width="80" height="100" as="geometry" />
        </mxCell>
        <mxCell id="3ZF8GUjdgBichUvoRQWA-9" value="" style="shape=note;whiteSpace=wrap;html=1;backgroundOutline=1;darkOpacity=0.05;fillColor=#6a00ff;fontColor=#ffffff;strokeColor=#3700CC;" vertex="1" parent="3ZF8GUjdgBichUvoRQWA-28">
          <mxGeometry width="80" height="100" as="geometry" />
        </mxCell>
        <mxCell id="3ZF8GUjdgBichUvoRQWA-10" value="topics" style="text;html=1;align=center;verticalAlign=middle;whiteSpace=wrap;rounded=0;fillColor=#6a00ff;fontColor=#ffffff;strokeColor=#3700CC;" vertex="1" parent="3ZF8GUjdgBichUvoRQWA-28">
          <mxGeometry x="10" y="40" width="60" height="30" as="geometry" />
        </mxCell>
        <mxCell id="3ZF8GUjdgBichUvoRQWA-29" value="" style="group" vertex="1" connectable="0" parent="1">
          <mxGeometry x="180" y="650" width="140" height="80" as="geometry" />
        </mxCell>
        <mxCell id="3ZF8GUjdgBichUvoRQWA-15" value="" style="shape=cube;whiteSpace=wrap;html=1;boundedLbl=1;backgroundOutline=1;darkOpacity=0.05;darkOpacity2=0.1;" vertex="1" parent="3ZF8GUjdgBichUvoRQWA-29">
          <mxGeometry width="140" height="80" as="geometry" />
        </mxCell>
        <mxCell id="3ZF8GUjdgBichUvoRQWA-16" value="SDF &lt;b&gt;experiment&lt;/b&gt; generation script" style="text;html=1;align=center;verticalAlign=middle;whiteSpace=wrap;rounded=0;" vertex="1" parent="3ZF8GUjdgBichUvoRQWA-29">
          <mxGeometry x="20" y="20" width="120" height="60" as="geometry" />
        </mxCell>
        <mxCell id="3ZF8GUjdgBichUvoRQWA-30" value="" style="group" vertex="1" connectable="0" parent="1">
          <mxGeometry x="520" y="650" width="140" height="80" as="geometry" />
        </mxCell>
        <mxCell id="3ZF8GUjdgBichUvoRQWA-17" value="" style="shape=cube;whiteSpace=wrap;html=1;boundedLbl=1;backgroundOutline=1;darkOpacity=0.05;darkOpacity2=0.1;" vertex="1" parent="3ZF8GUjdgBichUvoRQWA-30">
          <mxGeometry width="140" height="80" as="geometry" />
        </mxCell>
        <mxCell id="3ZF8GUjdgBichUvoRQWA-18" value="SDF &lt;b&gt;conversation&lt;/b&gt; generation script" style="text;html=1;align=center;verticalAlign=middle;whiteSpace=wrap;rounded=0;" vertex="1" parent="3ZF8GUjdgBichUvoRQWA-30">
          <mxGeometry x="20" y="20" width="120" height="60" as="geometry" />
        </mxCell>
        <mxCell id="3ZF8GUjdgBichUvoRQWA-35" value="" style="group" vertex="1" connectable="0" parent="1">
          <mxGeometry x="730" y="640" width="95" height="120" as="geometry" />
        </mxCell>
        <mxCell id="3ZF8GUjdgBichUvoRQWA-31" value="" style="shape=note;whiteSpace=wrap;html=1;backgroundOutline=1;darkOpacity=0.05;fillColor=#6a00ff;fontColor=#ffffff;strokeColor=#3700CC;" vertex="1" parent="3ZF8GUjdgBichUvoRQWA-35">
          <mxGeometry width="80" height="100" as="geometry" />
        </mxCell>
        <mxCell id="3ZF8GUjdgBichUvoRQWA-32" value="" style="shape=note;whiteSpace=wrap;html=1;backgroundOutline=1;darkOpacity=0.05;fillColor=#6a00ff;fontColor=#ffffff;strokeColor=#3700CC;" vertex="1" parent="3ZF8GUjdgBichUvoRQWA-35">
          <mxGeometry x="5" y="10" width="80" height="100" as="geometry" />
        </mxCell>
        <mxCell id="3ZF8GUjdgBichUvoRQWA-33" value="" style="shape=note;whiteSpace=wrap;html=1;backgroundOutline=1;darkOpacity=0.05;fillColor=#6a00ff;fontColor=#ffffff;strokeColor=#3700CC;" vertex="1" parent="3ZF8GUjdgBichUvoRQWA-35">
          <mxGeometry x="15" y="20" width="80" height="100" as="geometry" />
        </mxCell>
        <mxCell id="3ZF8GUjdgBichUvoRQWA-34" value="conversation&lt;div&gt;logs&lt;/div&gt;" style="text;html=1;align=center;verticalAlign=middle;whiteSpace=wrap;rounded=0;fillColor=#6a00ff;fontColor=#ffffff;strokeColor=#3700CC;" vertex="1" parent="3ZF8GUjdgBichUvoRQWA-35">
          <mxGeometry x="20" y="50" width="70" height="40" as="geometry" />
        </mxCell>
        <mxCell id="3ZF8GUjdgBichUvoRQWA-36" value="" style="group" vertex="1" connectable="0" parent="1">
          <mxGeometry x="380" y="640" width="95" height="120" as="geometry" />
        </mxCell>
        <mxCell id="3ZF8GUjdgBichUvoRQWA-19" value="" style="shape=note;whiteSpace=wrap;html=1;backgroundOutline=1;darkOpacity=0.05;fillColor=#6a00ff;fontColor=#ffffff;strokeColor=#3700CC;" vertex="1" parent="3ZF8GUjdgBichUvoRQWA-36">
          <mxGeometry width="80" height="100" as="geometry" />
        </mxCell>
        <mxCell id="3ZF8GUjdgBichUvoRQWA-20" value="" style="shape=note;whiteSpace=wrap;html=1;backgroundOutline=1;darkOpacity=0.05;fillColor=#6a00ff;fontColor=#ffffff;strokeColor=#3700CC;" vertex="1" parent="3ZF8GUjdgBichUvoRQWA-36">
          <mxGeometry x="5" y="10" width="80" height="100" as="geometry" />
        </mxCell>
        <mxCell id="3ZF8GUjdgBichUvoRQWA-21" value="" style="shape=note;whiteSpace=wrap;html=1;backgroundOutline=1;darkOpacity=0.05;fillColor=#6a00ff;fontColor=#ffffff;strokeColor=#3700CC;" vertex="1" parent="3ZF8GUjdgBichUvoRQWA-36">
          <mxGeometry x="15" y="20" width="80" height="100" as="geometry" />
        </mxCell>
        <mxCell id="3ZF8GUjdgBichUvoRQWA-22" value="conversation&lt;div&gt;configuration&lt;/div&gt;&lt;div&gt;files&lt;/div&gt;" style="text;html=1;align=center;verticalAlign=middle;whiteSpace=wrap;rounded=0;fillColor=#6a00ff;fontColor=#ffffff;strokeColor=#3700CC;" vertex="1" parent="3ZF8GUjdgBichUvoRQWA-36">
          <mxGeometry x="20" y="50" width="70" height="40" as="geometry" />
        </mxCell>
        <mxCell id="3ZF8GUjdgBichUvoRQWA-37" value="" style="shape=trapezoid;perimeter=trapezoidPerimeter;whiteSpace=wrap;html=1;fixedSize=1;fillColor=#d5e8d4;strokeColor=#82b366;" vertex="1" parent="1">
          <mxGeometry x="530" y="500" width="120" height="60" as="geometry" />
        </mxCell>
        <mxCell id="3ZF8GUjdgBichUvoRQWA-38" value="LLM instance" style="text;html=1;align=center;verticalAlign=middle;whiteSpace=wrap;rounded=0;fillColor=#d5e8d4;strokeColor=#82b366;" vertex="1" parent="1">
          <mxGeometry x="560" y="515" width="60" height="30" as="geometry" />
        </mxCell>
        <mxCell id="3ZF8GUjdgBichUvoRQWA-39" value="" style="endArrow=classic;html=1;rounded=0;" edge="1" parent="1" source="3ZF8GUjdgBichUvoRQWA-11" target="3ZF8GUjdgBichUvoRQWA-15">
          <mxGeometry width="50" height="50" relative="1" as="geometry">
            <mxPoint x="310" y="790" as="sourcePoint" />
            <mxPoint x="360" y="740" as="targetPoint" />
          </mxGeometry>
        </mxCell>
        <mxCell id="3ZF8GUjdgBichUvoRQWA-40" value="" style="endArrow=classic;html=1;rounded=0;" edge="1" parent="1" source="3ZF8GUjdgBichUvoRQWA-3" target="3ZF8GUjdgBichUvoRQWA-15">
          <mxGeometry width="50" height="50" relative="1" as="geometry">
            <mxPoint x="103" y="425" as="sourcePoint" />
            <mxPoint x="237" y="660" as="targetPoint" />
          </mxGeometry>
        </mxCell>
        <mxCell id="3ZF8GUjdgBichUvoRQWA-41" value="" style="endArrow=classic;html=1;rounded=0;" edge="1" parent="1" source="3ZF8GUjdgBichUvoRQWA-5" target="3ZF8GUjdgBichUvoRQWA-15">
          <mxGeometry width="50" height="50" relative="1" as="geometry">
            <mxPoint x="113" y="435" as="sourcePoint" />
            <mxPoint x="247" y="670" as="targetPoint" />
          </mxGeometry>
        </mxCell>
        <mxCell id="3ZF8GUjdgBichUvoRQWA-42" value="" style="endArrow=classic;html=1;rounded=0;" edge="1" parent="1" source="3ZF8GUjdgBichUvoRQWA-7" target="3ZF8GUjdgBichUvoRQWA-15">
          <mxGeometry width="50" height="50" relative="1" as="geometry">
            <mxPoint x="123" y="445" as="sourcePoint" />
            <mxPoint x="310" y="840" as="targetPoint" />
          </mxGeometry>
        </mxCell>
        <mxCell id="3ZF8GUjdgBichUvoRQWA-43" value="" style="endArrow=classic;html=1;rounded=0;" edge="1" parent="1" source="3ZF8GUjdgBichUvoRQWA-9" target="3ZF8GUjdgBichUvoRQWA-15">
          <mxGeometry width="50" height="50" relative="1" as="geometry">
            <mxPoint x="133" y="455" as="sourcePoint" />
            <mxPoint x="267" y="690" as="targetPoint" />
          </mxGeometry>
        </mxCell>
        <mxCell id="3ZF8GUjdgBichUvoRQWA-44" value="" style="endArrow=classic;html=1;rounded=0;" edge="1" parent="1" source="3ZF8GUjdgBichUvoRQWA-15" target="3ZF8GUjdgBichUvoRQWA-19">
          <mxGeometry width="50" height="50" relative="1" as="geometry">
            <mxPoint x="143" y="465" as="sourcePoint" />
            <mxPoint x="400" y="590" as="targetPoint" />
          </mxGeometry>
        </mxCell>
        <mxCell id="3ZF8GUjdgBichUvoRQWA-46" value="" style="endArrow=classic;html=1;rounded=0;" edge="1" parent="1" source="3ZF8GUjdgBichUvoRQWA-37" target="3ZF8GUjdgBichUvoRQWA-17">
          <mxGeometry width="50" height="50" relative="1" as="geometry">
            <mxPoint x="163" y="485" as="sourcePoint" />
            <mxPoint x="297" y="720" as="targetPoint" />
          </mxGeometry>
        </mxCell>
        <mxCell id="3ZF8GUjdgBichUvoRQWA-47" value="" style="endArrow=classic;html=1;rounded=0;" edge="1" parent="1" source="3ZF8GUjdgBichUvoRQWA-17" target="3ZF8GUjdgBichUvoRQWA-31">
          <mxGeometry width="50" height="50" relative="1" as="geometry">
            <mxPoint x="173" y="495" as="sourcePoint" />
            <mxPoint x="307" y="730" as="targetPoint" />
          </mxGeometry>
        </mxCell>
      </root>
    </mxGraphModel>
  </diagram>
</mxfile>
